<mxfile host="app.diagrams.net" modified="2022-04-26T23:39:32.711Z" agent="5.0 (Macintosh; Intel Mac OS X 10_15_6) AppleWebKit/605.1.15 (KHTML, like Gecko) Version/15.3 Safari/605.1.15" etag="qI2SJDKhr1wIKJAKJMgP" version="17.4.3" type="github">
  <diagram id="G8KPQ9NOTwhKrYpHMORL" name="Page-1">
    <mxGraphModel dx="1111" dy="907" grid="1" gridSize="10" guides="1" tooltips="1" connect="1" arrows="1" fold="1" page="1" pageScale="1" pageWidth="1169" pageHeight="827" math="0" shadow="0">
      <root>
        <mxCell id="0" />
        <mxCell id="1" parent="0" />
        <mxCell id="pjpAzNyuVV7gpyLH4Vfi-19" style="edgeStyle=orthogonalEdgeStyle;rounded=0;orthogonalLoop=1;jettySize=auto;html=1;" edge="1" parent="1" source="pjpAzNyuVV7gpyLH4Vfi-5">
          <mxGeometry relative="1" as="geometry">
            <mxPoint x="400" y="195" as="targetPoint" />
          </mxGeometry>
        </mxCell>
        <mxCell id="pjpAzNyuVV7gpyLH4Vfi-5" value="" style="fontColor=#0066CC;verticalAlign=top;verticalLabelPosition=bottom;labelPosition=center;align=center;html=1;outlineConnect=0;fillColor=#CCCCCC;strokeColor=#6881B3;gradientColor=none;gradientDirection=north;strokeWidth=2;shape=mxgraph.networks.pc;" vertex="1" parent="1">
          <mxGeometry x="600" y="160" width="100" height="70" as="geometry" />
        </mxCell>
        <mxCell id="pjpAzNyuVV7gpyLH4Vfi-20" style="edgeStyle=elbowEdgeStyle;rounded=0;orthogonalLoop=1;jettySize=auto;html=1;elbow=vertical;" edge="1" parent="1" source="pjpAzNyuVV7gpyLH4Vfi-8" target="pjpAzNyuVV7gpyLH4Vfi-12">
          <mxGeometry relative="1" as="geometry">
            <Array as="points">
              <mxPoint x="440" y="355" />
            </Array>
          </mxGeometry>
        </mxCell>
        <mxCell id="pjpAzNyuVV7gpyLH4Vfi-22" style="edgeStyle=elbowEdgeStyle;rounded=0;orthogonalLoop=1;jettySize=auto;elbow=vertical;html=1;" edge="1" parent="1" source="pjpAzNyuVV7gpyLH4Vfi-8" target="pjpAzNyuVV7gpyLH4Vfi-13">
          <mxGeometry relative="1" as="geometry">
            <Array as="points">
              <mxPoint x="420" y="510" />
            </Array>
          </mxGeometry>
        </mxCell>
        <mxCell id="pjpAzNyuVV7gpyLH4Vfi-8" value="" style="points=[];aspect=fixed;html=1;align=center;shadow=0;dashed=0;image;image=img/lib/allied_telesis/storage/Datacenter_Server_Rack_Storage_Unit_Small.svg;" vertex="1" parent="1">
          <mxGeometry x="210" y="145.7" width="108.62" height="94.3" as="geometry" />
        </mxCell>
        <mxCell id="pjpAzNyuVV7gpyLH4Vfi-24" style="edgeStyle=elbowEdgeStyle;rounded=0;orthogonalLoop=1;jettySize=auto;elbow=vertical;html=1;entryX=0.552;entryY=1;entryDx=0;entryDy=0;entryPerimeter=0;" edge="1" parent="1" source="pjpAzNyuVV7gpyLH4Vfi-12" target="pjpAzNyuVV7gpyLH4Vfi-8">
          <mxGeometry relative="1" as="geometry">
            <Array as="points">
              <mxPoint x="270" y="350" />
            </Array>
          </mxGeometry>
        </mxCell>
        <mxCell id="pjpAzNyuVV7gpyLH4Vfi-12" value="" style="sketch=0;outlineConnect=0;fontColor=#232F3E;gradientColor=none;fillColor=#B0084D;strokeColor=none;dashed=0;verticalLabelPosition=bottom;verticalAlign=top;align=center;html=1;fontSize=12;fontStyle=0;aspect=fixed;pointerEvents=1;shape=mxgraph.aws4.event_resource;" vertex="1" parent="1">
          <mxGeometry x="610" y="320" width="60" height="60" as="geometry" />
        </mxCell>
        <mxCell id="pjpAzNyuVV7gpyLH4Vfi-27" style="edgeStyle=elbowEdgeStyle;rounded=0;orthogonalLoop=1;jettySize=auto;elbow=vertical;html=1;entryX=0.46;entryY=1;entryDx=0;entryDy=0;entryPerimeter=0;" edge="1" parent="1" source="pjpAzNyuVV7gpyLH4Vfi-13" target="pjpAzNyuVV7gpyLH4Vfi-8">
          <mxGeometry relative="1" as="geometry">
            <Array as="points">
              <mxPoint x="420" y="520" />
            </Array>
          </mxGeometry>
        </mxCell>
        <mxCell id="pjpAzNyuVV7gpyLH4Vfi-13" value="" style="sketch=0;outlineConnect=0;fontColor=#232F3E;gradientColor=none;fillColor=#B0084D;strokeColor=none;dashed=0;verticalLabelPosition=bottom;verticalAlign=top;align=center;html=1;fontSize=12;fontStyle=0;aspect=fixed;pointerEvents=1;shape=mxgraph.aws4.event_resource;" vertex="1" parent="1">
          <mxGeometry x="610" y="470" width="60" height="60" as="geometry" />
        </mxCell>
        <mxCell id="pjpAzNyuVV7gpyLH4Vfi-18" value="port1" style="fontStyle=0;labelPosition=right;verticalLabelPosition=middle;align=left;verticalAlign=middle;spacingLeft=2;" vertex="1" parent="1">
          <mxGeometry x="330" y="180" width="30" height="30" as="geometry" />
        </mxCell>
        <mxCell id="pjpAzNyuVV7gpyLH4Vfi-28" value="连接" style="text;html=1;align=center;verticalAlign=middle;resizable=0;points=[];autosize=1;strokeColor=none;fillColor=none;" vertex="1" parent="1">
          <mxGeometry x="430" y="170" width="40" height="20" as="geometry" />
        </mxCell>
        <mxCell id="pjpAzNyuVV7gpyLH4Vfi-29" value="应用1" style="text;html=1;align=center;verticalAlign=middle;resizable=0;points=[];autosize=1;strokeColor=none;fillColor=none;" vertex="1" parent="1">
          <mxGeometry x="665" y="340" width="50" height="20" as="geometry" />
        </mxCell>
        <mxCell id="pjpAzNyuVV7gpyLH4Vfi-30" value="应用2" style="text;html=1;align=center;verticalAlign=middle;resizable=0;points=[];autosize=1;strokeColor=none;fillColor=none;" vertex="1" parent="1">
          <mxGeometry x="665" y="490" width="50" height="20" as="geometry" />
        </mxCell>
        <mxCell id="pjpAzNyuVV7gpyLH4Vfi-31" value="服务容器" style="text;html=1;align=center;verticalAlign=middle;resizable=0;points=[];autosize=1;strokeColor=none;fillColor=none;" vertex="1" parent="1">
          <mxGeometry x="220" y="120" width="60" height="20" as="geometry" />
        </mxCell>
        <mxCell id="pjpAzNyuVV7gpyLH4Vfi-32" value="request" style="text;html=1;align=center;verticalAlign=middle;resizable=0;points=[];autosize=1;strokeColor=none;fillColor=none;" vertex="1" parent="1">
          <mxGeometry x="410" y="320" width="60" height="20" as="geometry" />
        </mxCell>
        <mxCell id="pjpAzNyuVV7gpyLH4Vfi-33" value="response" style="text;html=1;align=center;verticalAlign=middle;resizable=0;points=[];autosize=1;strokeColor=none;fillColor=none;" vertex="1" parent="1">
          <mxGeometry x="400" y="390" width="60" height="20" as="geometry" />
        </mxCell>
      </root>
    </mxGraphModel>
  </diagram>
</mxfile>
